<svg width="1000" height="1000" viewBox="0 0 1000 1000" fill="none" xmlns="http://www.w3.org/2000/svg">
<rect width="1000" height="1000" rx="191" fill="black"/>
<path d="M289.125 387.144C311.182 339.496 358.901 309 411.401 309H473.306C483.664 309 490.529 319.744 486.177 329.145L354.381 613.856C332.324 661.504 284.605 692 232.105 692H170.2C159.842 692 152.977 681.256 157.329 671.855L289.125 387.144Z" fill="white"/>
<path d="M526.701 387.144C548.757 339.496 596.476 309 648.976 309H710.881C721.239 309 728.104 319.744 723.752 329.145L591.956 613.856C569.899 661.504 522.18 692 469.68 692H407.776C397.417 692 390.553 681.256 394.904 671.855L526.701 387.144Z" fill="white"/>
<path d="M665.705 603.343C665.705 554.378 705.394 514.685 754.353 514.685C803.311 514.685 843 554.378 843 603.343C843 652.307 803.311 692 754.353 692C705.394 692 665.705 652.307 665.705 603.343Z" fill="white"/>
</svg>
